<?xml version="1.0" encoding="UTF-8" standalone="no"?>
<!-- Created with Inkscape (http://www.inkscape.org/) -->

<svg
   width="210mm"
   height="297mm"
   viewBox="0 0 210 297"
   version="1.1"
   id="svg1"
   inkscape:version="1.4.4 (dcaf3e7, 2026-05-05)"
   sodipodi:docname="logo_creation.svg"
   xmlns:inkscape="http://www.inkscape.org/namespaces/inkscape"
   xmlns:sodipodi="http://sodipodi.sourceforge.net/DTD/sodipodi-0.dtd"
   xmlns="http://www.w3.org/2000/svg"
   xmlns:svg="http://www.w3.org/2000/svg">
  <sodipodi:namedview
     id="namedview1"
     pagecolor="#ffffff"
     bordercolor="#000000"
     borderopacity="0.25"
     inkscape:showpageshadow="2"
     inkscape:pageopacity="0.0"
     inkscape:pagecheckerboard="0"
     inkscape:deskcolor="#d1d1d1"
     inkscape:document-units="mm"
     inkscape:zoom="0.69441166"
     inkscape:cx="226.81071"
     inkscape:cy="732.99461"
     inkscape:window-width="1102"
     inkscape:window-height="755"
     inkscape:window-x="417"
     inkscape:window-y="44"
     inkscape:window-maximized="0"
     inkscape:current-layer="layer1" />
  <defs
     id="defs1">
    <inkscape:path-effect
       effect="fillet_chamfer"
       id="path-effect20"
       is_visible="true"
       lpeversion="1"
       nodesatellites_param="F,0,0,1,0,9.2604165,0,1 @ F,0,0,1,0,9.2604165,0,1 @ F,0,0,1,0,9.2604165,0,1 @ F,0,0,1,0,9.2604165,0,1 @ F,0,0,1,0,9.2604165,0,1 @ F,0,0,1,0,9.2604165,0,1"
       radius="35"
       unit="px"
       method="auto"
       mode="F"
       chamfer_steps="1"
       flexible="false"
       use_knot_distance="true"
       apply_no_radius="true"
       apply_with_radius="true"
       only_selected="false"
       hide_knots="false" />
    <inkscape:path-effect
       effect="fillet_chamfer"
       id="path-effect2"
       is_visible="true"
       lpeversion="1"
       nodesatellites_param="F,0,0,1,0,9.2604165,0,1 @ F,0,0,1,0,9.2604165,0,1 @ F,0,0,1,0,9.2604165,0,1 @ F,0,0,1,0,9.2604165,0,1 @ F,0,0,1,0,9.2604165,0,1 @ F,0,0,1,0,9.2604165,0,1"
       radius="35"
       unit="px"
       method="auto"
       mode="F"
       chamfer_steps="1"
       flexible="false"
       use_knot_distance="true"
       apply_no_radius="true"
       apply_with_radius="true"
       only_selected="false"
       hide_knots="false" />
    <inkscape:path-effect
       effect="fillet_chamfer"
       id="path-effect1"
       is_visible="true"
       lpeversion="1"
       nodesatellites_param="F,0,0,1,0,6.6145832,0,1 @ F,0,0,1,0,6.6145832,0,1 @ F,0,0,1,0,6.6145832,0,1 @ F,0,0,1,0,6.6145832,0,1"
       radius="25"
       unit="px"
       method="auto"
       mode="F"
       chamfer_steps="1"
       flexible="false"
       use_knot_distance="true"
       apply_no_radius="true"
       apply_with_radius="true"
       only_selected="false"
       hide_knots="false" />
    <inkscape:path-effect
       effect="fillet_chamfer"
       id="path-effect2-5"
       is_visible="true"
       lpeversion="1"
       nodesatellites_param="F,0,0,1,0,9.2604165,0,1 @ F,0,0,1,0,9.2604165,0,1 @ F,0,0,1,0,9.2604165,0,1 @ F,0,0,1,0,9.2604165,0,1 @ F,0,0,1,0,9.2604165,0,1 @ F,0,0,1,0,9.2604165,0,1"
       radius="35"
       unit="px"
       method="auto"
       mode="F"
       chamfer_steps="1"
       flexible="false"
       use_knot_distance="true"
       apply_no_radius="true"
       apply_with_radius="true"
       only_selected="false"
       hide_knots="false" />
    <inkscape:path-effect
       effect="fillet_chamfer"
       id="path-effect2-2"
       is_visible="true"
       lpeversion="1"
       nodesatellites_param="F,0,0,1,0,9.2604165,0,1 @ F,0,0,1,0,9.2604165,0,1 @ F,0,0,1,0,9.2604165,0,1 @ F,0,0,1,0,9.2604165,0,1 @ F,0,0,1,0,9.2604165,0,1 @ F,0,0,1,0,9.2604165,0,1"
       radius="35"
       unit="px"
       method="auto"
       mode="F"
       chamfer_steps="1"
       flexible="false"
       use_knot_distance="true"
       apply_no_radius="true"
       apply_with_radius="true"
       only_selected="false"
       hide_knots="false" />
  </defs>
  <g
     inkscape:label="Layer 1"
     inkscape:groupmode="layer"
     id="layer1">
    <path
       id="rect1"
       d="m 30.362347,59.87325 16.426097,2.142869 a 8.3727339,8.3727339 0 0 1 7.219296,9.385473 l -2.142868,16.426097 a 8.3727339,8.3727339 0 0 1 -9.385474,7.219296 L 26.053301,92.904116 a 8.3727339,8.3727339 0 0 1 -7.219296,-9.385473 l 2.142869,-16.426097 a 8.3727339,8.3727339 0 0 1 9.385473,-7.219296 z"
       style="fill:none;stroke:#cb3c33;stroke-width:6.50001;stroke-linecap:round;stroke-linejoin:miter;stroke-dasharray:none;stroke-opacity:1" />
    <path
       sodipodi:type="star"
       style="fill:none;stroke:#9558b2;stroke-width:5.58166;stroke-linecap:round;stroke-linejoin:miter;stroke-dasharray:none;stroke-opacity:1"
       id="path1"
       inkscape:flatsided="false"
       sodipodi:sides="3"
       sodipodi:cx="71.315971"
       sodipodi:cy="35.858311"
       sodipodi:r1="21.857552"
       sodipodi:r2="10.928776"
       sodipodi:arg1="1.2635375"
       sodipodi:arg2="2.3107351"
       inkscape:rounded="0"
       inkscape:randomized="0"
       d="m 71.087813,50.448422 -0.30158,-0.275335 -13.979397,-12.76287 a 5.346504,5.346504 102.39537 0 1 1.987807,-9.044553 l 0.389238,-0.123508 18.042668,-5.725078 a 5.346504,5.346504 42.395366 0 1 6.838909,6.243768 l -0.08766,0.398843 -4.063271,18.487948 a 5.346504,5.346504 162.39537 0 1 -8.826716,2.800785 z"
       inkscape:transform-center-x="0.66734293"
       inkscape:transform-center-y="1.854067"
       transform="matrix(0.98539911,0.62057474,-0.62057474,0.98539911,34.992151,-4.270424)"
       inkscape:path-effect="#path-effect2" />
    <path
       id="path2"
       style="fill:none;stroke:#389826;stroke-width:6.5;stroke-linecap:round"
       d="M 78.199846,54.388447 A 19.003588,19.003588 0 0 1 59.196259,73.392035 19.003588,19.003588 0 0 1 40.192671,54.388447 19.003588,19.003588 0 0 1 59.196259,35.384859 19.003588,19.003588 0 0 1 78.199846,54.388447 Z" />
    <text
       xml:space="preserve"
       style="font-size:10.5833px;writing-mode:lr-tb;direction:ltr;fill:none;stroke:#9558b2;stroke-width:6.49999;stroke-linecap:round;stroke-linejoin:miter;stroke-dasharray:none;stroke-opacity:1"
       x="12.662976"
       y="21.104961"
       id="text3"><tspan
         sodipodi:role="line"
         id="tspan3"
         style="font-size:10.5833px;fill:#000000;stroke:none;stroke-width:6.5"
         x="12.662976"
         y="21.104961">Original Shapes</tspan></text>
    <text
       xml:space="preserve"
       style="font-size:10.5833px;writing-mode:lr-tb;direction:ltr;fill:none;stroke:#9558b2;stroke-width:6.49999;stroke-linecap:round;stroke-linejoin:miter;stroke-dasharray:none;stroke-opacity:1"
       x="8.7799397"
       y="125.52061"
       id="text3-6"><tspan
         sodipodi:role="line"
         style="font-size:10.5833px;fill:#000000;stroke:none;stroke-width:6.5"
         x="8.7799397"
         y="125.52061"
         id="tspan21">Full logo</tspan></text>
    <path
       id="rect1-7"
       d="m 31.643669,210.00752 16.426097,2.14287 a 8.3727339,8.3727339 0 0 1 7.219296,9.38547 l -2.142868,16.4261 a 8.3727339,8.3727339 0 0 1 -9.385474,7.21929 l -16.426097,-2.14286 a 8.3727339,8.3727339 0 0 1 -7.219296,-9.38548 l 2.142869,-16.42609 a 8.3727339,8.3727339 0 0 1 9.385473,-7.2193 z"
       style="fill:none;stroke:#cb3c33;stroke-width:6.50001;stroke-linecap:round;stroke-linejoin:miter;stroke-dasharray:none;stroke-opacity:1"
       inkscape:export-filename="logo.svg"
       inkscape:export-xdpi="96"
       inkscape:export-ydpi="96" />
    <path
       sodipodi:type="star"
       style="fill:none;stroke:#9558b2;stroke-width:5.58166;stroke-linecap:round;stroke-linejoin:miter;stroke-dasharray:none;stroke-opacity:1"
       id="path1-1"
       inkscape:flatsided="false"
       sodipodi:sides="3"
       sodipodi:cx="71.315971"
       sodipodi:cy="35.858311"
       sodipodi:r1="21.857552"
       sodipodi:r2="10.928776"
       sodipodi:arg1="1.2635375"
       sodipodi:arg2="2.3107351"
       inkscape:rounded="0"
       inkscape:randomized="0"
       d="m 71.087813,50.448422 -0.30158,-0.275335 -13.979397,-12.76287 a 5.346504,5.346504 102.39537 0 1 1.987807,-9.044553 l 0.389238,-0.123508 18.042668,-5.725078 a 5.346504,5.346504 42.395366 0 1 6.838909,6.243768 l -0.08766,0.398843 -4.063271,18.487948 a 5.346504,5.346504 162.39537 0 1 -8.826716,2.800785 z"
       inkscape:transform-center-x="0.66734293"
       inkscape:transform-center-y="1.854067"
       transform="matrix(0.98539911,0.62057474,-0.62057474,0.98539911,36.273473,145.86385)"
       inkscape:path-effect="#path-effect2-2" />
    <path
       id="path2-0"
       style="fill:none;stroke:#389826;stroke-width:6.5;stroke-linecap:round"
       d="M 79.481168,204.52272 A 19.003588,19.003588 0 0 1 60.477581,223.52631 19.003588,19.003588 0 0 1 41.473993,204.52272 19.003588,19.003588 0 0 1 60.477581,185.51913 19.003588,19.003588 0 0 1 79.481168,204.52272 Z" />
    <path
       style="baseline-shift:baseline;display:inline;overflow:visible;opacity:1;vector-effect:none;fill:#cb3c33;stroke-linecap:round;enable-background:accumulate;stop-color:#000000;stop-opacity:1"
       d="m 50.726026,216.92162 c 1.018156,1.07339 1.551091,2.58261 1.341003,4.19302 l -0.49506,3.79564 c 1.978312,0.86947 4.105737,1.45917 6.33088,1.71772 l 0.609265,-4.67155 c 0.07847,-0.60147 0.108645,-1.19913 0.09353,-1.78852 -2.96001,-0.34607 -5.661999,-1.50362 -7.879622,-3.24631 z"
       id="path17" />
    <path
       style="baseline-shift:baseline;display:inline;overflow:visible;opacity:1;vector-effect:none;fill:#000000;fill-opacity:0;stroke-linecap:round;enable-background:accumulate;stop-color:#000000;stop-opacity:1"
       d="m 38.438404,207.61573 c 0.339737,2.42262 1.072381,4.72269 2.131136,6.83317 l 7.079155,0.92346 c 0.831419,0.10846 1.586411,0.40132 2.228804,0.83251 -2.232217,-2.02483 -3.87591,-4.68529 -4.653463,-7.70393 z"
       id="path15" />
    <path
       style="baseline-shift:baseline;display:inline;overflow:visible;opacity:1;vector-effect:none;fill:#389826;fill-opacity:1;stroke-width:1.16453;stroke-linecap:round;enable-background:accumulate;stop-color:#000000;stop-opacity:1"
       d="m 72.298352,214.96721 c -1.688005,1.91123 -3.835576,3.40558 -6.274552,4.3155 l 1.72651,6.26887 c 2.125635,-0.7394 4.106715,-1.79282 5.88698,-3.10472 l -1.468128,-5.32836 c -0.218311,-0.7924 -0.148943,-1.53607 0.12919,-2.15129 z"
       id="path20" />
    <path
       style="baseline-shift:baseline;display:inline;overflow:visible;opacity:1;vector-effect:none;fill:#9558b2;stroke-width:1.16453;stroke-linecap:round;enable-background:accumulate;stop-color:#000000;stop-opacity:1"
       d="m 76.053679,206.90672 c -0.388556,2.58986 -1.401265,4.96782 -2.881477,6.97736 0.678495,-0.50009 1.604281,-0.70101 2.615343,-0.4377 l 0.459404,0.11989 4.049882,1.05471 c 0.981793,-1.91542 1.694574,-3.99026 2.086177,-6.17326 l -4.496882,-1.17099 -0.459404,-0.11989 c -0.460118,-0.11983 -0.918807,-0.20245 -1.373043,-0.25012 z"
       id="path18" />
    <text
       xml:space="preserve"
       style="font-size:5.29167px;writing-mode:lr-tb;direction:ltr;fill:#389826;fill-opacity:1;stroke:none;stroke-width:6.49999;stroke-linecap:round;stroke-linejoin:miter;stroke-dasharray:none;stroke-opacity:1"
       x="8.7634144"
       y="136.40443"
       id="text22"><tspan
         sodipodi:role="line"
         id="tspan22"
         style="fill:#000000;fill-opacity:1;stroke-width:6.5"
         x="8.7634144"
         y="136.40443">1. Select two of the above shapes</tspan><tspan
         sodipodi:role="line"
         style="fill:#000000;fill-opacity:1;stroke-width:6.5"
         x="8.7634144"
         y="143.01903"
         id="tspan23"
         dx="0 0 0">2. Duplicate them</tspan><tspan
         sodipodi:role="line"
         style="fill:#000000;fill-opacity:1;stroke-width:6.5"
         x="8.7634144"
         y="149.63361"
         id="tspan24">3. Path -&gt; stroke to path</tspan><tspan
         sodipodi:role="line"
         style="fill:#000000;fill-opacity:1;stroke-width:6.5"
         x="8.7634144"
         y="156.2482"
         id="tspan25">4. Path -&gt; intersection</tspan><tspan
         sodipodi:role="line"
         style="fill:#000000;fill-opacity:1;stroke-width:6.5"
         x="8.7634144"
         y="162.86278"
         id="tspan26">5. Path -&gt; Break apart</tspan><tspan
         sodipodi:role="line"
         style="fill:#000000;fill-opacity:1;stroke-width:6.5"
         x="8.7634144"
         y="169.47737"
         id="tspan27">You should now have segments that can be coloured</tspan><tspan
         sodipodi:role="line"
         style="fill:#000000;fill-opacity:1;stroke-width:6.5"
         x="8.7634144"
         y="176.09196"
         id="tspan28">in as desired to create the linked-shapes effect.</tspan></text>
  </g>
</svg>
